# xmcd CD database file
#
# Track frame offsets:
#	150
#	17122
#	35925
#	55525
#	74075
#	89927
#	113600
#	131515
#	151437
#	168680
#	188337
#	204662
#	223757
#	248025
#
# Disc length: 3584 seconds
#
# Revision: 0
# Processed by: cddbd v1.5.1PL0 Copyright (c) Steve Scherf et al.
# Submitted via: CDex 1.51
#
DISCID=d00dfe0e
DTITLE=blu cantrell - so blu
DYEAR=2001
DGENRE=R&B
TTITLE0=Waste My Time
TTITLE1=Hit 'Em Up Style (Oops!)
TTITLE2=Till I'm Gone
TTITLE3=U Must B Crazy
TTITLE4=The One
TTITLE5=I'll Find A Way
TTITLE6=Swingin'
TTITLE7=10,000 Times
TTITLE8=When I Needed You
TTITLE9=All You Had To Say
TTITLE10=I Can't Believe
TTITLE11=So Blu
TTITLE12=Blu Is A Mood
TTITLE13=Hit 'Em Up Style (Oops!) [Jazee Remix]
EXTD=YEAR: 2001
EXTT0=
EXTT1=
EXTT2=
EXTT3=
EXTT4=
EXTT5=
EXTT6=
EXTT7=
EXTT8=
EXTT9=
EXTT10=
EXTT11=
EXTT12=
EXTT13=
PLAYORDER=
